<?xml version="1.0" encoding="UTF-8" standalone="no" ?>
<!DOCTYPE svg PUBLIC "-//W3C//DTD SVG 1.1//EN" "http://www.w3.org/Graphics/SVG/1.1/DTD/svg11.dtd">
<svg xmlns="http://www.w3.org/2000/svg" xmlns:xlink="http://www.w3.org/1999/xlink" version="1.1" width="1080" height="1080" viewBox="0 0 1080 1080" xml:space="preserve">
<desc>Created with Fabric.js 5.2.4</desc>
<defs>
</defs>
<rect x="0" y="0" width="100%" height="100%" fill="transparent"></rect>
<g transform="matrix(1 0 0 1 540 540)" id="2f0dc121-86fd-4153-95ae-87c2e4560199"  >
<rect style="stroke: none; stroke-width: 1; stroke-dasharray: none; stroke-linecap: butt; stroke-dashoffset: 0; stroke-linejoin: miter; stroke-miterlimit: 4; fill: rgb(255,255,255); fill-rule: nonzero; opacity: 1; visibility: hidden;" vector-effect="non-scaling-stroke"  x="-540" y="-540" rx="0" ry="0" width="1080" height="1080" />
</g>
<g transform="matrix(Infinity NaN NaN Infinity 0 0)" id="08aed615-d43b-423d-94df-5fd41baa6ac4"  >
</g>
<g transform="matrix(3.61 0 0 3.61 540 540)"  >
<g style="" vector-effect="non-scaling-stroke"   >
		<g transform="matrix(1 0 0 1 0 34.27)"  >
<path style="stroke: none; stroke-width: 1; stroke-dasharray: none; stroke-linecap: butt; stroke-dashoffset: 0; stroke-linejoin: miter; stroke-miterlimit: 4; fill: rgb(21,44,81); fill-rule: nonzero; opacity: 1;" vector-effect="non-scaling-stroke"  transform=" translate(-77.78, -172.86)" d="M 155.55 276.49 C 154.70000000000002 277.51 153.49 277.12 152.43 277.12 C 145.14000000000001 277.02 146.99 277.7 141.98000000000002 273.25 C 131.09000000000003 263.61 122.07000000000002 252.68 114.20000000000002 240.91 C 104.35000000000002 226.23 96.69000000000001 210.65 90.92000000000002 194.29 C 88.84000000000002 188.42 87.09000000000002 182.42 85.88000000000001 176.38 C 85.13000000000001 172.60999999999999 84.32000000000001 168.84 83.9 164.99 C 83.38000000000001 160.26000000000002 82.86 155.49 82.25 150.77 C 81.52 145.11 81.83 139.5 81.62 133.86 C 81.60000000000001 133.46 81.7 133.01000000000002 81.08 132.42000000000002 C 78.27 137.44000000000003 75.23 142.14000000000001 71.85 146.64000000000001 C 68.64 150.87 65.28999999999999 154.99 61.48 158.8 C 59.65 160.61 58 162.55 56.089999999999996 164.26000000000002 C 45.199999999999996 173.96 32.17999999999999 181.13000000000002 18.069999999999993 186.62 C 13.879999999999992 188.62 1.249999999999993 190.31 -7.105427357601002e-15 190.47 C 1.2299999999999929 190.05 14.759999999999993 183.18 20.799999999999994 178.54 C 25.959999999999994 174.98 29.89999999999999 170.31 34.269999999999996 166.07 C 39.41 161.10999999999999 43.83 155.57999999999998 47.809999999999995 149.79 C 53.28999999999999 141.81 58.05 133.45999999999998 62.00999999999999 124.74 C 64.89999999999999 118.41 67.46999999999998 111.97999999999999 69.38 105.33 C 70.46 101.52 71.61 97.73 72.28999999999999 93.9 C 72.72999999999999 91.51 73.16 89.09 73.55999999999999 86.7 C 74.05999999999999 83.74000000000001 74.85 77.75 74.85 77.75 C 74.85 77.75 75 76.92 75.02 76.5 C 75.42 71.65 78.92999999999999 68.65 84.22 68.63 C 88.14 68.61 92.09 68.86 95.98 68.55 C 99.73 68.25999999999999 104.64 72.11 104.66 76.25 C 104.7 81.04 104.03999999999999 90.62 104.03999999999999 90.62 C 104.03999999999999 90.62 103.86999999999999 93.31 103.86999999999999 94.66000000000001 C 103.85 107.74000000000001 103.55999999999999 120.83000000000001 103.99999999999999 133.89000000000001 C 104.16999999999999 139.3 104.59999999999998 144.76000000000002 105.26999999999998 150.21 C 105.66999999999999 153.35 106.05999999999999 156.52 106.45999999999998 159.68 C 106.80999999999997 162.49 106.87999999999998 165.36 107.78999999999998 168.11 C 108.30999999999997 169.71 108.32999999999998 171.4 108.65999999999998 173.05 C 109.94999999999999 179.71 111.77999999999999 186.25 113.54999999999998 192.81 C 116.60999999999999 204.12 120.77999999999999 215.09 125.55999999999999 225.86 C 130.51999999999998 237 136.32999999999998 247.79000000000002 143.07 258.14 C 146.98 264.14 150.95999999999998 270.09 155.44 275.74 C 155.57 275.93 155.54 276.22 155.57 276.47 Z" stroke-linecap="round" />
</g>
		<g transform="matrix(1 0 0 1 11.26 -111.31)"  >
<path style="stroke: none; stroke-width: 1; stroke-dasharray: none; stroke-linecap: butt; stroke-dashoffset: 0; stroke-linejoin: miter; stroke-miterlimit: 4; fill: rgb(33,147,166); fill-rule: nonzero; opacity: 1;" vector-effect="non-scaling-stroke"  transform=" translate(-89.04, -27.29)" d="M 118.72 27.02 C 119.46 42.24 104.3 55.03 88.21 54.56 C 73.5 54.120000000000005 58.529999999999994 42.59 59.36999999999999 25.740000000000002 C 60.02 12.45 72.81 -0.18 89.54 0 C 105.10000000000001 0.17 119.37 12.4 118.71000000000001 27.02 Z" stroke-linecap="round" />
</g>
</g>
</g>
</svg>